<svg xmlns="http://www.w3.org/2000/svg" xmlns:xlink="http://www.w3.org/1999/xlink" xmlns:inkscape="http://www.inkscape.org/namespaces/inkscape" version="1.1" width="595.2756" height="595.2756" viewBox="0 0 595.2756 595.2756">
<g inkscape:groupmode="layer" inkscape:label="&#x0421;&#x043B;&#x043E;&#x0439; 1">
<path transform="matrix(1,0,0,-1,0,595.2756)" d="M67.9099 527.9128 233.2616 527.9462 366.3811 204.8097 398.7692 205.0705 468.4992 386.8529 434.8749 386.8172 380.9803 250.8551C372.5209 261.8963 269.2911 527.5877 259.67 550.4692L44.6051 550.4763 44.5595 44.3999 325.1129 44.699 315.8144 66.7843 67.0706 66.8534Z" fill="#252b39" fill-rule="evenodd"/>
<path transform="matrix(1,0,0,-1,0,595.2756)" d="M196.8831 278.0186 226.2274 351.4141 257.0494 278.3103ZM303.3527 528.7139 527.9267 527.8626C531.36 509.5621 528.5602 177.6053 528.7371 121.6593L528.5792 66.8319 382.9742 66.911 241.446 388.5579 212.3527 388.3258 133.7258 206.6556 165.8891 207.0811 183.2666 250.0469 269.4634 249.6929 358.486 44.3951 550.6262 44.6726 550.686 550.4573 294.7096 550.3544Z" fill="#252b39" fill-rule="evenodd"/>
</g>
</svg>
