<svg width="18.375977" height="15.010010" viewBox="0 0 18.376 15.01" fill="none" xmlns="http://www.w3.org/2000/svg" xmlns:xlink="http://www.w3.org/1999/xlink">
	<desc>
			Created with Pixso.
	</desc>
	<defs/>
	<path id="Vector" d="M18.37 7.5C18.37 7.8 18.25 8.09 18.04 8.3C17.83 8.51 17.54 8.63 17.25 8.63L4.07 8.63L9 13.04C9.11 13.14 9.2 13.25 9.26 13.39C9.33 13.52 9.37 13.67 9.37 13.81C9.38 13.96 9.36 14.11 9.31 14.25C9.26 14.39 9.19 14.52 9.09 14.63C8.99 14.74 8.87 14.83 8.74 14.89C8.6 14.96 8.46 15 8.31 15C8.16 15.01 8.01 14.99 7.87 14.94C7.73 14.89 7.61 14.81 7.5 14.71L0.37 8.34C0.25 8.23 0.16 8.1 0.09 7.96C0.03 7.82 0 7.66 0 7.5C0 7.34 0.03 7.18 0.09 7.04C0.16 6.9 0.25 6.77 0.37 6.66L7.5 0.29C7.61 0.19 7.73 0.11 7.87 0.06C8.01 0.01 8.16 -0.01 8.31 0C8.46 0 8.6 0.04 8.74 0.11C8.87 0.17 8.99 0.26 9.09 0.37C9.19 0.48 9.26 0.61 9.31 0.75C9.36 0.89 9.38 1.04 9.37 1.19C9.37 1.33 9.33 1.48 9.26 1.61C9.2 1.75 9.11 1.86 9 1.96L4.07 6.38L17.25 6.38C17.54 6.38 17.83 6.49 18.04 6.71C18.25 6.92 18.37 7.2 18.37 7.5Z" fill="#0C0C0C" fill-opacity="1.000000" fill-rule="nonzero"/>
</svg>
