<svg xmlns="http://www.w3.org/2000/svg" xmlns:xlink="http://www.w3.org/1999/xlink" xmlns:inkscape="http://www.inkscape.org/namespaces/inkscape" version="1.1" width="841.8898" height="595.2756" viewBox="0 0 841.8898 595.2756">
<g inkscape:groupmode="layer" inkscape:label="&#x0421;&#x043B;&#x043E;&#x0439; 1">
<path transform="matrix(1,0,0,-1,0,595.2756)" d="M535.6171 468.2469 517.7823 461.7921V101.6201L535.6171 97.7596Z" fill="#4d4d4d" fill-rule="evenodd"/>
<path transform="matrix(1,0,0,-1,0,595.2756)" stroke-width=".5669" stroke-linecap="butt" stroke-linejoin="round" fill="none" stroke="#4d4d4d" d="M535.6171 468.2469 517.7823 461.7921V101.6201L535.6171 97.7596Z"/>
<path transform="matrix(1,0,0,-1,0,595.2756)" d="M631.9162 377.3619 652.7923 411.366 620.4197 405.0116Z" fill="#4d4d4d" fill-rule="evenodd"/>
<path transform="matrix(1,0,0,-1,0,595.2756)" stroke-width=".5669" stroke-linecap="butt" stroke-linejoin="round" fill="none" stroke="#4d4d4d" d="M631.9162 377.3619 652.7923 411.366 620.4197 405.0116Z"/>
<path transform="matrix(1,0,0,-1,0,595.2756)" d="M323.4875 477.0026 420.6345 525.2434V69.6283L323.4875 93.31Z" fill="#ffffff" fill-rule="evenodd"/>
<path transform="matrix(1,0,0,-1,0,595.2756)" stroke-width=".5669" stroke-linecap="butt" stroke-linejoin="round" fill="none" stroke="#4d4d4d" d="M323.4875 477.0026 420.6345 525.2434V69.6283L323.4875 93.31Z"/>
<path transform="matrix(1,0,0,-1,0,595.2756)" d="M144.3648 389.046 263.3049 447.4001C294.4162 462.7721 305.0067 452.8746 305.5116 426.4002V354.8015C305.5592 338.6563 288.2163 316.7175 262.8743 303.5911 282.5816 303.6044 304.9926 307.6265 305.5116 279.1806V156.0957C305.8492 125.5201 291.5042 109.8748 263.63 107.9867L144.3186 137.0188Z" fill="#ffffff" fill-rule="evenodd"/>
<path transform="matrix(1,0,0,-1,0,595.2756)" stroke-width=".5669" stroke-linecap="butt" stroke-miterlimit="22.925585" stroke-linejoin="miter" fill="none" stroke="#4d4d4d" d="M144.3648 389.046 263.3049 447.4001C294.4162 462.7721 305.0067 452.8746 305.5116 426.4002V354.8015C305.5592 338.6563 288.2163 316.7175 262.8743 303.5911 282.5816 303.6044 304.9926 307.6265 305.5116 279.1806V156.0957C305.8492 125.5201 291.5042 109.8748 263.63 107.9867L144.3186 137.0188Z"/>
<path transform="matrix(1,0,0,-1,0,595.2756)" d="M517.7823 477.0677 420.6353 525.2434V69.6283L517.7823 93.3752Z" fill="#e6e6e6" fill-rule="evenodd"/>
<path transform="matrix(1,0,0,-1,0,595.2756)" stroke-width=".5669" stroke-linecap="butt" stroke-linejoin="round" fill="none" stroke="#4d4d4d" d="M517.7823 477.0677 420.6353 525.2434V69.6283L517.7823 93.3752Z"/>
<path transform="matrix(1,0,0,-1,0,595.2756)" d="M535.6171 468.2469 608.9236 432.6613 631.9162 377.3619 652.7923 411.366 697.5411 389.6433V137.7522L652.7752 126.6959 652.6205 184.4371 631.8391 150.7382 608.8391 193.6165 608.8311 115.8423 535.6171 97.7596Z" fill="#e6e6e6" fill-rule="evenodd"/>
<path transform="matrix(1,0,0,-1,0,595.2756)" stroke-width=".5669" stroke-linecap="butt" stroke-linejoin="round" fill="none" stroke="#4d4d4d" d="M535.6171 468.2469 608.9236 432.6613 631.9162 377.3619 652.7923 411.366 697.5411 389.6433V137.7522L652.7752 126.6959 652.6205 184.4371 631.8391 150.7382 608.8391 193.6165 608.8311 115.8423 535.6171 97.7596Z"/>
<path transform="matrix(1,0,0,-1,0,595.2756)" d="M652.6205 184.4371 652.7752 126.6959 608.8346 129.2851 608.8391 193.6165 631.8391 150.7382Z" fill="#4d4d4d" fill-rule="evenodd"/>
<path transform="matrix(1,0,0,-1,0,595.2756)" stroke-width=".5669" stroke-linecap="butt" stroke-linejoin="round" fill="none" stroke="#4d4d4d" d="M652.6205 184.4371 652.7752 126.6959 608.8346 129.2851 608.8391 193.6165 631.8391 150.7382Z"/>
<path transform="matrix(1,0,0,-1,0,595.2756)" d="M323.4875 441.4408V117.8274L273.2919 109.1494C294.8083 113.7869 305.8075 129.119 305.5116 155.9367V279.0218C304.9926 307.4675 282.5816 303.4457 262.8743 303.4324 288.2163 316.5588 305.5592 338.4975 305.5116 354.6428V426.2414C305.2086 442.1225 301.2763 452.0384 291.4631 454.1131Z" fill="#4d4d4d" fill-rule="evenodd"/>
<path transform="matrix(1,0,0,-1,0,595.2756)" stroke-width=".5669" stroke-linecap="butt" stroke-linejoin="round" fill="none" stroke="#4d4d4d" d="M323.4875 441.4408V117.8274L273.2919 109.1494C294.8083 113.7869 305.8075 129.119 305.5116 155.9367V279.0218C304.9926 307.4675 282.5816 303.4457 262.8743 303.4324 288.2163 316.5588 305.5592 338.4975 305.5116 354.6428V426.2414C305.2086 442.1225 301.2763 452.0384 291.4631 454.1131Z"/>
<path transform="matrix(1,0,0,-1,0,595.2756)" d="M356.5403 379.4573 331.0645 371.4851V220.3801H356.4105V286.5821L384.1997 220.2245H415.2597L376.6895 313.0744 412.5189 395.5966 380.5458 386.1564 356.5403 334.0857Z" fill="#4d4d4d" fill-rule="evenodd"/>
<path transform="matrix(1,0,0,-1,0,595.2756)" d="M500.3019 375.2393C483.9469 379.7595 467.5921 384.2796 451.237 388.7997 433.7518 393.7918 434.4953 379.7189 434.5191 375.3992 434.2802 330.7759 434.0404 286.1535 433.8014 241.5302 434.0064 231.0216 436.9238 220.9178 453.1431 220.7908 468.3149 220.7908 483.486 220.7908 498.6575 220.7908 506.4026 220.828 509.7447 224.1405 509.8065 238.8526 509.8065 259.7856 509.8065 280.7181 509.8065 301.6514 501.4437 302.9176 493.0809 304.1836 484.7185 305.4498 484.7185 298.0672 484.7185 290.6847 484.7185 283.3024 487.0304 283.0161 489.3426 282.7304 491.6548 282.4444 491.6548 273.4758 491.6548 264.5067 491.6548 255.5382 491.6548 248.7538 489.2598 247.3041 485.5422 247.4158 480.9436 247.6148 476.3449 247.8146 471.746 248.0136 466.0319 248.3512 463.8915 251.2774 463.7906 257.563 463.7906 289.1733 463.7906 320.7838 463.7906 352.3944 463.8628 355.6431 463.2199 362.4199 472.2148 360.3779 476.7194 359.2403 481.2106 358.0458 485.7284 356.9655 489.7117 356.0128 491.5851 354.6646 491.5284 349.4364 491.4652 343.5755 491.6115 337.7132 491.6526 331.8511 497.5637 330.5911 503.4753 329.3308 509.3861 328.0708 509.466 338.6534 509.5454 349.2354 509.6254 359.818 509.7274 373.337 506.5631 373.4399 500.3019 375.2393" fill="#4d4d4d" fill-rule="evenodd"/>
</g>
</svg>
