<svg width="9.768555" height="9.750488" viewBox="0 0 9.76855 9.75049" fill="none" xmlns="http://www.w3.org/2000/svg" xmlns:xlink="http://www.w3.org/1999/xlink">
	<desc>
			Created with Pixso.
	</desc>
	<defs/>
	<path id="Vector" d="M8.99 0.18C8.82 0.09 8.63 0.03 8.43 0C8.24 -0.02 8.04 0 7.85 0.05C7.66 0.11 7.49 0.2 7.33 0.32C7.18 0.44 7.05 0.59 6.95 0.77L4.17 5.78L2.57 4.18C2.44 4.04 2.27 3.93 2.09 3.85C1.9 3.77 1.71 3.73 1.51 3.73C1.31 3.72 1.11 3.76 0.93 3.84C0.74 3.91 0.58 4.02 0.43 4.17C0.29 4.31 0.18 4.47 0.11 4.66C0.03 4.84 -0.01 5.04 0 5.24C0 5.44 0.04 5.64 0.12 5.82C0.2 6 0.31 6.17 0.45 6.31L3.45 9.31C3.74 9.59 4.12 9.75 4.51 9.75L4.72 9.73C4.95 9.7 5.17 9.61 5.36 9.48C5.55 9.35 5.71 9.18 5.82 8.97L9.57 2.22C9.67 2.05 9.73 1.86 9.75 1.67C9.78 1.47 9.76 1.27 9.71 1.08C9.65 0.89 9.56 0.72 9.44 0.56C9.32 0.41 9.16 0.28 8.99 0.18Z" fill="#F3F8FF" fill-opacity="1.000000" fill-rule="nonzero"/>
</svg>
