<svg width="16.000000" height="16.000000" viewBox="0 0 16 16" fill="none" xmlns="http://www.w3.org/2000/svg" xmlns:xlink="http://www.w3.org/1999/xlink">
	<desc>
			Created with Pixso.
	</desc>
	<defs/>
	<rect id="Property 1=vaadin:office" rx="0.000000" width="15.000000" height="15.000000" transform="translate(0.500000 0.500000)" fill="#FFFFFF" fill-opacity="0"/>
	<path id="Vector" d="M14 15L14 4L11 4L11 1L2 1L2 15L0 15L0 16L7 16L7 13L9 13L9 16L16 16L16 15L14 15ZM6 11L4 11L4 9L6 9L6 11ZM6 8L4 8L4 6L6 6L6 8ZM6 5L4 5L4 3L6 3L6 5ZM9 11L7 11L7 9L9 9L9 11ZM9 8L7 8L7 6L9 6L9 8ZM9 5L7 5L7 3L9 3L9 5ZM13 11L11 11L11 9L13 9L13 11ZM13 8L11 8L11 6L13 6L13 8Z" fill="#04132A" fill-opacity="1.000000" fill-rule="nonzero"/>
</svg>
