<svg width="24" height="24" viewBox="0 0 24 24" fill="none" xmlns="http://www.w3.org/2000/svg">
<path d="M6.3436 14.8284C5.56255 15.6094 5.56255 16.8758 6.3436 17.6568C7.12465 18.4379 8.39098 18.4379 9.17203 17.6568L12.0005 14.8284L14.8289 17.6568C15.6099 18.4379 16.8763 18.4379 17.6573 17.6568C18.4384 16.8758 18.4384 15.6094 17.6573 14.8284L14.8289 12L17.6573 9.17154C18.4384 8.39049 18.4384 7.12416 17.6573 6.34311C16.8763 5.56206 15.6099 5.56206 14.8289 6.34311L12.0005 9.17154L9.17203 6.34311C8.39098 5.56206 7.12465 5.56206 6.3436 6.34311C5.56255 7.12416 5.56255 8.39049 6.3436 9.17154L9.17203 12L6.3436 14.8284Z" fill="#0C0C0C"/>
</svg>
