<svg width="24" height="24" viewBox="0 0 24 24" fill="none" xmlns="http://www.w3.org/2000/svg">
<path d="M16.8567 2.56641H7.87043C5.19512 2.56641 3 4.692 3 7.33222V16.5506C3 19.1684 5.17226 21.3164 7.87043 21.3164H16.8796C19.5549 21.3164 21.75 19.1908 21.75 16.5506V7.30984C21.7271 4.692 19.5549 2.56641 16.8567 2.56641ZM18.4802 18.1392H14.9588C14.936 18.1392 14.9131 18.1392 14.9131 18.1168L11.6204 13.4405H11.5976C10.2713 14.9396 8.96799 16.4163 7.6875 17.8707C7.6189 17.9602 7.52744 18.0273 7.45884 18.0944C7.43598 18.1168 7.41311 18.1168 7.39024 18.1168H6.42988C6.40701 18.1168 6.38415 18.1168 6.40701 18.0944L11.0945 12.7693C11.1174 12.7469 11.1174 12.7245 11.0945 12.7021L6.42988 6.05686V6.03449H9.97409C9.99695 6.03449 9.99695 6.03448 10.0198 6.05686L13.1296 10.4647C13.1296 10.4647 13.1296 10.4647 13.1524 10.4647L17.0168 6.05686C17.0396 6.03448 17.0625 6.03449 17.0854 6.03449H18.0457C18.0915 6.03449 18.0915 6.05686 18.0686 6.07923L13.6326 11.1135C13.6098 11.1359 13.6098 11.1583 13.6326 11.1807L18.503 18.1168C18.503 18.1168 18.503 18.1392 18.4802 18.1392Z" fill="#04132A"/>
<path d="M9.3003 6.66895H7.82957C7.80762 6.66895 7.80762 6.69043 7.80762 6.7119L14.8759 16.7429C14.8759 16.7429 14.8759 16.7429 14.8979 16.7429H16.3466C16.3686 16.7429 16.3686 16.7215 16.3686 16.7L9.3003 6.66895Z" fill="#04132A"/>
</svg>
