<svg width="24" height="24" viewBox="0 0 24 24" fill="none" xmlns="http://www.w3.org/2000/svg">
<rect width="24" height="24" rx="12" fill="white"/>
<path d="M12 0.5C18.3513 0.5 23.5 5.64872 23.5 12C23.5 18.3513 18.3513 23.5 12 23.5C5.64872 23.5 0.5 18.3513 0.5 12C0.5 5.64872 5.64872 0.5 12 0.5ZM12 0.802734C5.81599 0.802734 0.802734 5.81599 0.802734 12C0.802734 17.6843 5.03813 22.3784 10.5254 23.1006L11.0908 23.1748V17.1309H8.37598V14.5674H11.0908V12.1797C11.0908 10.8389 11.76 9.93763 12.6104 9.35254C13.4802 8.75407 14.5099 8.51085 15.1064 8.51074H16.6777V10.707H15.8623C15.4948 10.707 14.9696 10.8612 14.5352 11.1357C14.0998 11.4108 13.6291 11.892 13.6289 12.5967V14.5674H16.623L16.3242 17.1309H13.6289V23.0967L14.2275 22.9756C19.3442 21.9424 23.1973 17.4216 23.1973 12C23.1973 5.81599 18.184 0.802734 12 0.802734ZM15.1064 8.6084C14.5653 8.6085 13.6433 8.81643 12.8271 9.32617L12.666 9.43262C11.8348 10.0045 11.1875 10.8786 11.1875 12.1797V14.6641H8.47363V17.0332H11.1875V23.0898H13.5312V17.0332H16.2373L16.2891 16.5918L16.4492 15.2227L16.5146 14.6641H13.5312V12.5967C13.5314 11.9397 13.9152 11.4692 14.3135 11.1709L14.4834 11.0537C14.9636 10.7503 15.4994 10.6094 16.0801 10.6094H16.5801V8.6084H15.1064Z" fill="black" stroke="black"/>
</svg>
