<svg width="26" height="26" viewBox="0 0 26 26" fill="none" xmlns="http://www.w3.org/2000/svg">
<rect x="1" y="1" width="24" height="24" rx="8" fill="white"/>
<path d="M18.95 9.61514C18.9749 9.24779 18.6974 8.92976 18.33 8.9048C17.9627 8.87983 17.6447 9.15739 17.6197 9.52473C17.5207 10.9821 16.8572 11.9069 16.2219 12.4767C15.6255 13.0118 14.874 13.4165 14.0645 13.4738C13.8909 13.486 13.711 13.4907 13.5342 13.4905V9.56993C13.5342 9.20174 13.2357 8.90326 12.8675 8.90326H11.7787C11.4105 8.90326 11.112 9.20174 11.112 9.56993C11.112 9.93812 11.4105 10.2366 11.7787 10.2366H12.2009V16.1606C9.95694 15.3464 8.82458 14.0601 8.23414 12.8612C7.55907 11.4904 7.55538 10.1611 7.55538 9.56993C7.55538 9.20174 7.2569 8.90326 6.88871 8.90326C6.52052 8.90326 6.22204 9.20174 6.22204 9.56993V9.57824C6.22203 10.2042 6.22199 11.7933 7.03799 13.4502C7.87238 15.1445 9.52374 16.8396 12.69 17.714C12.8907 17.7694 13.1057 17.728 13.2713 17.6019C13.437 17.4758 13.5342 17.2796 13.5342 17.0714V14.8239C13.7375 14.824 13.9494 14.8186 14.1586 14.8038C14.4669 14.782 14.8202 14.7374 15.1435 14.6347C15.6753 15.0235 16.235 15.5937 16.7105 16.1554C16.9844 16.4791 17.2195 16.7869 17.3929 17.0335C17.4798 17.1569 17.5486 17.2614 17.5979 17.3423C17.6383 17.4083 17.6565 17.4437 17.662 17.4543C17.664 17.4583 17.6643 17.4588 17.6632 17.4561C17.7963 17.7994 18.1825 17.9698 18.5258 17.8367C18.8691 17.7036 19.0395 17.3174 18.9064 16.9741C18.8347 16.789 18.6636 16.5225 18.4836 16.2665C18.2864 15.9861 18.0268 15.6468 17.7281 15.2939C17.3636 14.8633 16.9237 14.3919 16.4535 13.9799C16.6605 13.8418 16.8851 13.673 17.1123 13.4692C17.9535 12.7146 18.823 11.4835 18.95 9.61514Z" fill="black"/>
<path fill-rule="evenodd" clip-rule="evenodd" d="M23.3158 23.3158C25 21.6318 25 18.9212 25 13.5V12.5C25 7.07885 25 4.36827 23.3158 2.68413C21.6318 1 18.9212 1 13.5 1H12.5C7.07885 1 4.36827 1 2.68413 2.68413C1 4.36827 1 7.07885 1 12.5V13.5C1 18.9212 1 21.6318 2.68413 23.3158C4.36827 25 7.07885 25 12.5 25H13.5C18.9212 25 21.6318 25 23.3158 23.3158ZM23.6002 19.6494C23.4076 21.0822 23.0493 21.8854 22.4673 22.4673C21.8854 23.0493 21.0822 23.4076 19.6494 23.6002C18.1822 23.7975 16.2445 23.8 13.5 23.8H12.5C9.7555 23.8 7.81784 23.7975 6.35059 23.6002C4.91785 23.4076 4.1146 23.0493 3.53265 22.4673C2.95072 21.8854 2.59244 21.0822 2.39982 19.6494C2.20255 18.1822 2.2 16.2445 2.2 13.5V12.5C2.2 9.7555 2.20255 7.81784 2.39982 6.35058C2.59244 4.91784 2.95072 4.11461 3.53266 3.53266C4.11461 2.95072 4.91784 2.59244 6.35058 2.39982C7.81784 2.20255 9.7555 2.2 12.5 2.2H13.5C16.2445 2.2 18.1822 2.20255 19.6494 2.39982C21.0822 2.59244 21.8854 2.95073 22.4673 3.53267C23.0493 4.11461 23.4076 4.91785 23.6002 6.35059C23.7975 7.81784 23.8 9.7555 23.8 12.5V13.5C23.8 16.2445 23.7975 18.1822 23.6002 19.6494Z" fill="black"/>
<path d="M18.95 9.61514C18.9749 9.24779 18.6974 8.92976 18.33 8.9048C17.9627 8.87983 17.6447 9.15739 17.6197 9.52473C17.5207 10.9821 16.8572 11.9069 16.2219 12.4767C15.6255 13.0118 14.874 13.4165 14.0645 13.4738C13.8909 13.486 13.711 13.4907 13.5342 13.4905V9.56993C13.5342 9.20174 13.2357 8.90326 12.8675 8.90326H11.7787C11.4105 8.90326 11.112 9.20174 11.112 9.56993C11.112 9.93812 11.4105 10.2366 11.7787 10.2366H12.2009V16.1606C9.95694 15.3464 8.82458 14.0601 8.23414 12.8612C7.55907 11.4904 7.55538 10.1611 7.55538 9.56993C7.55538 9.20174 7.2569 8.90326 6.88871 8.90326C6.52052 8.90326 6.22204 9.20174 6.22204 9.56993V9.57824C6.22203 10.2042 6.22199 11.7933 7.03799 13.4502C7.87238 15.1445 9.52374 16.8396 12.69 17.714C12.8907 17.7694 13.1057 17.728 13.2713 17.6019C13.437 17.4758 13.5342 17.2796 13.5342 17.0714V14.8239C13.7375 14.824 13.9494 14.8186 14.1586 14.8038C14.4669 14.782 14.8202 14.7374 15.1435 14.6347C15.6753 15.0235 16.235 15.5937 16.7105 16.1554C16.9844 16.4791 17.2195 16.7869 17.3929 17.0335C17.4798 17.1569 17.5486 17.2614 17.5979 17.3423C17.6383 17.4083 17.6565 17.4437 17.662 17.4543C17.664 17.4583 17.6643 17.4588 17.6632 17.4561C17.7963 17.7994 18.1825 17.9698 18.5258 17.8367C18.8691 17.7036 19.0395 17.3174 18.9064 16.9741C18.8347 16.789 18.6636 16.5225 18.4836 16.2665C18.2864 15.9861 18.0268 15.6468 17.7281 15.2939C17.3636 14.8633 16.9237 14.3919 16.4535 13.9799C16.6605 13.8418 16.8851 13.673 17.1123 13.4692C17.9535 12.7146 18.823 11.4835 18.95 9.61514Z" stroke="black" stroke-width="0.5" stroke-linecap="round" stroke-linejoin="round"/>
<path fill-rule="evenodd" clip-rule="evenodd" d="M23.3158 23.3158C25 21.6318 25 18.9212 25 13.5V12.5C25 7.07885 25 4.36827 23.3158 2.68413C21.6318 1 18.9212 1 13.5 1H12.5C7.07885 1 4.36827 1 2.68413 2.68413C1 4.36827 1 7.07885 1 12.5V13.5C1 18.9212 1 21.6318 2.68413 23.3158C4.36827 25 7.07885 25 12.5 25H13.5C18.9212 25 21.6318 25 23.3158 23.3158ZM23.6002 19.6494C23.4076 21.0822 23.0493 21.8854 22.4673 22.4673C21.8854 23.0493 21.0822 23.4076 19.6494 23.6002C18.1822 23.7975 16.2445 23.8 13.5 23.8H12.5C9.7555 23.8 7.81784 23.7975 6.35059 23.6002C4.91785 23.4076 4.1146 23.0493 3.53265 22.4673C2.95072 21.8854 2.59244 21.0822 2.39982 19.6494C2.20255 18.1822 2.2 16.2445 2.2 13.5V12.5C2.2 9.7555 2.20255 7.81784 2.39982 6.35058C2.59244 4.91784 2.95072 4.11461 3.53266 3.53266C4.11461 2.95072 4.91784 2.59244 6.35058 2.39982C7.81784 2.20255 9.7555 2.2 12.5 2.2H13.5C16.2445 2.2 18.1822 2.20255 19.6494 2.39982C21.0822 2.59244 21.8854 2.95073 22.4673 3.53267C23.0493 4.11461 23.4076 4.91785 23.6002 6.35059C23.7975 7.81784 23.8 9.7555 23.8 12.5V13.5C23.8 16.2445 23.7975 18.1822 23.6002 19.6494Z" stroke="black" stroke-width="0.5" stroke-linecap="round" stroke-linejoin="round"/>
</svg>
