<svg width="28" height="28" viewBox="0 0 28 28" fill="none" xmlns="http://www.w3.org/2000/svg">
<path d="M4.66699 7.00016C4.66699 6.69074 4.78991 6.394 5.0087 6.17521C5.22749 5.95641 5.52424 5.8335 5.83366 5.8335H22.167C22.4764 5.8335 22.7732 5.95641 22.992 6.17521C23.2107 6.394 23.3337 6.69074 23.3337 7.00016C23.3337 7.30958 23.2107 7.60633 22.992 7.82512C22.7732 8.04391 22.4764 8.16683 22.167 8.16683H5.83366C5.52424 8.16683 5.22749 8.04391 5.0087 7.82512C4.78991 7.60633 4.66699 7.30958 4.66699 7.00016ZM4.66699 14.0002C4.66699 13.6907 4.78991 13.394 5.0087 13.1752C5.22749 12.9564 5.52424 12.8335 5.83366 12.8335H22.167C22.4764 12.8335 22.7732 12.9564 22.992 13.1752C23.2107 13.394 23.3337 13.6907 23.3337 14.0002C23.3337 14.3096 23.2107 14.6063 22.992 14.8251C22.7732 15.0439 22.4764 15.1668 22.167 15.1668H5.83366C5.52424 15.1668 5.22749 15.0439 5.0087 14.8251C4.78991 14.6063 4.66699 14.3096 4.66699 14.0002ZM5.83366 19.8335C5.52424 19.8335 5.22749 19.9564 5.0087 20.1752C4.78991 20.394 4.66699 20.6907 4.66699 21.0002C4.66699 21.3096 4.78991 21.6063 5.0087 21.8251C5.22749 22.0439 5.52424 22.1668 5.83366 22.1668H22.167C22.4764 22.1668 22.7732 22.0439 22.992 21.8251C23.2107 21.6063 23.3337 21.3096 23.3337 21.0002C23.3337 20.6907 23.2107 20.394 22.992 20.1752C22.7732 19.9564 22.4764 19.8335 22.167 19.8335H5.83366Z" fill="#F3F8FF"/>
</svg>
