<svg width="16" height="16" viewBox="0 0 16 16" fill="none" xmlns="http://www.w3.org/2000/svg">
<path fill-rule="evenodd" clip-rule="evenodd" d="M8 14.6666C11.6819 14.6666 14.6667 11.6818 14.6667 7.99992C14.6667 4.31802 11.6819 1.33325 8 1.33325C4.3181 1.33325 1.33333 4.31802 1.33333 7.99992C1.33333 11.6818 4.3181 14.6666 8 14.6666ZM8.5 4.66659C8.5 4.39044 8.27614 4.16659 8 4.16659C7.72385 4.16659 7.5 4.39044 7.5 4.66659V7.99992C7.5 8.21513 7.63771 8.4062 7.84188 8.47426L9.84188 9.14093C10.1039 9.22825 10.387 9.08667 10.4743 8.8247C10.5617 8.56273 10.4201 8.27957 10.1581 8.19224L8.5 7.63954V4.66659Z" fill="#04132A"/>
</svg>
