<svg width="18" height="18" viewBox="0 0 18 18" fill="none" xmlns="http://www.w3.org/2000/svg">
<path d="M12.729 4.68816C12.5568 4.59245 12.3674 4.5316 12.1717 4.50909C11.976 4.48658 11.7777 4.50285 11.5883 4.55696C11.3988 4.61108 11.2219 4.70198 11.0676 4.82448C10.9133 4.94698 10.7847 5.09868 10.689 5.27091L7.90425 10.2824L6.3105 8.68866C6.17213 8.5454 6.00661 8.43113 5.82361 8.35251C5.6406 8.2739 5.44377 8.23252 5.2446 8.23079C5.04543 8.22906 4.84791 8.26701 4.66357 8.34243C4.47922 8.41785 4.31175 8.52923 4.17091 8.67007C4.03007 8.81091 3.91869 8.97839 3.84327 9.16273C3.76785 9.34708 3.72989 9.5446 3.73162 9.74377C3.73335 9.94293 3.77473 10.1398 3.85335 10.3228C3.93196 10.5058 4.04623 10.6713 4.1895 10.8097L7.1895 13.8097C7.473 14.0939 7.8555 14.2499 8.25 14.2499L8.45775 14.2349C8.68766 14.2028 8.90697 14.1177 9.09841 13.9863C9.28986 13.855 9.44821 13.6811 9.561 13.4782L13.311 6.72816C13.4067 6.556 13.4676 6.36667 13.4902 6.17097C13.5128 5.97528 13.4966 5.77706 13.4425 5.58762C13.3885 5.39819 13.2976 5.22126 13.1752 5.06693C13.0528 4.9126 12.9012 4.78389 12.729 4.68816Z" fill="#F3F8FF"/>
</svg>
