<svg width="152" height="45" viewBox="0 0 152 45" fill="none" xmlns="http://www.w3.org/2000/svg">
<path d="M23.9879 40.7002L23.9836 0C21.6771 2.27747 19.3107 4.51788 17.0664 6.85403C17.0401 7.77492 17.0616 8.70103 17.0637 9.62239C16.4044 10.3783 15.6456 11.0678 14.9314 11.773C13.6244 13.0549 12.324 14.3433 11.0303 15.6385C10.9816 17.8565 11.0341 20.0803 11.0079 22.2996C10.2166 23.3333 9.09555 24.248 8.17373 25.1762C8.10898 26.6821 8.15874 28.2099 8.15842 29.7179L8.1742 37.5758C7.23341 37.5666 6.29995 37.6072 5.37223 37.7741C3.40658 38.1277 1.97537 38.995 0.839844 40.6175C5.99485 39.1385 14.1268 41.5255 19.1957 43.0191L19.8657 43.2016C20.8862 43.3908 21.9047 43.702 22.9184 43.934C25.7588 44.5841 28.7821 45.1229 31.7091 44.9746C35.4181 44.7866 39.4511 43.4922 42.0005 40.6948C39.816 41.9591 37.455 42.2519 34.9704 42.3184L34.9621 24.8628C34.0475 24.1124 33.1048 23.2845 32.2795 22.44L32.2812 15.4883C30.2098 13.6789 28.2357 11.7629 26.1797 9.9363L26.1835 41.2212C25.4506 41.0515 24.7187 40.8778 23.9879 40.7002Z" fill="white"/>
<path d="M17.1211 9.73975C17.6782 10.0779 18.7919 11.3495 19.3167 11.8775C19.3116 21.109 19.2293 30.3481 19.3268 39.5788C18.5964 39.3854 17.8622 39.2078 17.124 39.0459L17.1211 9.73975Z" fill="#1A427F"/>
<path d="M32.2 22.5303C32.3247 23.036 32.2064 26.5674 32.2061 27.3283L32.223 42.192C31.4607 42.1079 30.6998 42.013 29.9403 41.9076C29.7433 41.8757 29.6452 41.8847 29.4937 41.7516C29.4656 41.6818 29.4393 41.6178 29.4337 41.5419C29.4033 41.1239 29.4605 40.6546 29.4607 40.2298L29.46 36.4936L29.4562 24.8917C30.3044 24.0585 31.292 23.303 32.2 22.5303Z" fill="#1A427F"/>
<path d="M11.0842 22.4043C11.659 22.7597 13.2286 24.4835 13.8029 25.0589C13.8442 26.0467 13.8136 27.0482 13.8137 28.0377L13.8093 33.6623L13.8188 36.6299C13.8217 37.1773 13.8643 37.768 13.7895 38.3103C12.9179 38.0777 11.9725 37.9445 11.0759 37.8447C11.1917 32.7023 11.0201 27.5486 11.0842 22.4043Z" fill="#1A427F"/>
<path d="M3.77914 41.2603C7.29657 40.905 12.0197 42.2165 15.4285 43.1144C14.2373 43.1811 13.0372 42.9853 11.8602 42.8263C8.88184 42.3496 5.84287 41.687 2.81219 41.7221C1.86804 41.733 0.941276 41.9329 0 41.9872C1.26136 41.6168 2.46834 41.366 3.77914 41.2603Z" fill="#1A427F"/>
<path d="M54.2266 32.9995H50.9297V22.8745H49.9531V32.9995H46.6562V20.3433H54.2266V32.9995ZM55.7069 20.3511H59.0194C59.9152 20.3511 60.6027 20.4214 61.0819 20.562C61.5662 20.7026 61.9282 20.9058 62.1678 21.1714C62.4126 21.437 62.5767 21.7599 62.66 22.1401C62.7485 22.5151 62.7928 23.0985 62.7928 23.8901V24.9917C62.7928 25.799 62.7095 26.3875 62.5428 26.7573C62.3761 27.1271 62.0689 27.411 61.6209 27.6089C61.1782 27.8068 60.5975 27.9058 59.8787 27.9058H58.9959V32.9995H55.7069V20.3511ZM58.9959 22.5151V25.7339C59.0897 25.7391 59.1704 25.7417 59.2381 25.7417C59.5402 25.7417 59.7485 25.6688 59.8631 25.5229C59.9829 25.3719 60.0428 25.062 60.0428 24.5933V23.5542C60.0428 23.1219 59.9751 22.8407 59.8397 22.7104C59.7043 22.5802 59.423 22.5151 58.9959 22.5151ZM71.4137 27.7573C71.4137 29.0282 71.3825 29.9292 71.32 30.4604C71.2627 30.9865 71.0752 31.4683 70.7575 31.9058C70.445 32.3433 70.0205 32.6792 69.4841 32.9136C68.9476 33.1479 68.3226 33.2651 67.6091 33.2651C66.932 33.2651 66.3226 33.1558 65.7809 32.937C65.2445 32.7131 64.8122 32.3797 64.4841 31.937C64.1559 31.4943 63.9606 31.0125 63.8981 30.4917C63.8356 29.9709 63.8044 29.0594 63.8044 27.7573V25.5933C63.8044 24.3224 63.833 23.424 63.8903 22.8979C63.9528 22.3667 64.1403 21.8823 64.4528 21.4448C64.7705 21.0073 65.1976 20.6714 65.7341 20.437C66.2705 20.2026 66.8955 20.0854 67.6091 20.0854C68.2861 20.0854 68.8929 20.1974 69.4294 20.4214C69.971 20.6401 70.4059 20.9709 70.7341 21.4136C71.0622 21.8563 71.2575 22.3381 71.32 22.8589C71.3825 23.3797 71.4137 24.2912 71.4137 25.5933V27.7573ZM68.1247 23.6011C68.1247 23.0125 68.0908 22.6375 68.0231 22.4761C67.9606 22.3094 67.8278 22.2261 67.6247 22.2261C67.4528 22.2261 67.32 22.2938 67.2262 22.4292C67.1377 22.5594 67.0934 22.95 67.0934 23.6011V29.5073C67.0934 30.2417 67.1221 30.6948 67.1794 30.8667C67.2419 31.0386 67.3825 31.1245 67.6012 31.1245C67.8252 31.1245 67.9684 31.0256 68.0309 30.8276C68.0934 30.6297 68.1247 30.1584 68.1247 29.4136V23.6011ZM82.9566 20.3511V32.9995H80.0816V24.4604L78.9331 32.9995H76.8941L75.6831 24.6558V32.9995H72.8081V20.3511H77.0659C77.1909 21.1115 77.3237 22.0073 77.4644 23.0386L77.9175 26.2573L78.6675 20.3511H82.9566ZM90.1478 22.8745H87.7337V32.9995H84.4369V20.3433H90.1478V22.8745ZM91.1906 20.3511H94.5031C95.399 20.3511 96.0865 20.4214 96.5656 20.562C97.05 20.7026 97.412 20.9058 97.6516 21.1714C97.8964 21.437 98.0604 21.7599 98.1437 22.1401C98.2323 22.5151 98.2766 23.0985 98.2766 23.8901V24.9917C98.2766 25.799 98.1932 26.3875 98.0266 26.7573C97.8599 27.1271 97.5526 27.411 97.1047 27.6089C96.662 27.8068 96.0812 27.9058 95.3625 27.9058H94.4797V32.9995H91.1906V20.3511ZM94.4797 22.5151V25.7339C94.5734 25.7391 94.6542 25.7417 94.7219 25.7417C95.024 25.7417 95.2323 25.6688 95.3469 25.5229C95.4667 25.3719 95.5266 25.062 95.5266 24.5933V23.5542C95.5266 23.1219 95.4589 22.8407 95.3234 22.7104C95.188 22.5802 94.9068 22.5151 94.4797 22.5151ZM105.062 20.3511L106.944 32.9995H103.577L103.413 30.7261H102.233L102.038 32.9995H98.6319L100.304 20.3511H105.062ZM103.319 28.4839C103.153 27.0516 102.986 25.2834 102.819 23.1792C102.486 25.5959 102.278 27.3641 102.194 28.4839H103.319ZM117.073 35.1792H114.8V32.9995H109.487V35.1792H107.222V30.3589H107.893C108.248 29.3224 108.537 27.9604 108.761 26.2729C108.99 24.5802 109.104 22.7313 109.104 20.7261V20.3433H116.401V30.3433H117.073V35.1792ZM113.104 30.3433V22.8433H112.128V22.937C112.128 25.3589 111.867 27.8276 111.347 30.3433H113.104ZM125.944 25.8667H122.655V23.6636C122.655 23.0229 122.619 22.6245 122.546 22.4683C122.478 22.3068 122.324 22.2261 122.085 22.2261C121.814 22.2261 121.642 22.3224 121.569 22.5151C121.496 22.7078 121.46 23.1245 121.46 23.7651V29.6401C121.46 30.2547 121.496 30.6558 121.569 30.8433C121.642 31.0308 121.806 31.1245 122.061 31.1245C122.306 31.1245 122.465 31.0308 122.538 30.8433C122.616 30.6558 122.655 30.2157 122.655 29.5229V27.937H125.944V28.4292C125.944 29.7365 125.85 30.6636 125.663 31.2104C125.481 31.7573 125.072 32.2365 124.436 32.6479C123.806 33.0594 123.027 33.2651 122.1 33.2651C121.137 33.2651 120.342 33.0907 119.717 32.7417C119.092 32.3927 118.678 31.911 118.475 31.2964C118.272 30.6766 118.171 29.7469 118.171 28.5073V24.812C118.171 23.9006 118.202 23.2183 118.264 22.7651C118.327 22.3068 118.512 21.8667 118.819 21.4448C119.132 21.0229 119.561 20.6922 120.108 20.4526C120.66 20.2078 121.293 20.0854 122.007 20.0854C122.975 20.0854 123.775 20.2729 124.405 20.6479C125.035 21.0229 125.449 21.4917 125.647 22.0542C125.845 22.6115 125.944 23.4813 125.944 24.6636V25.8667ZM133.909 20.3511V22.8823H131.956V32.9995H128.667V22.8823H126.721V20.3511H133.909ZM142.334 27.7573C142.334 29.0282 142.303 29.9292 142.241 30.4604C142.183 30.9865 141.996 31.4683 141.678 31.9058C141.366 32.3433 140.941 32.6792 140.405 32.9136C139.868 33.1479 139.243 33.2651 138.53 33.2651C137.853 33.2651 137.243 33.1558 136.702 32.937C136.165 32.7131 135.733 32.3797 135.405 31.937C135.077 31.4943 134.881 31.0125 134.819 30.4917C134.756 29.9709 134.725 29.0594 134.725 27.7573V25.5933C134.725 24.3224 134.754 23.424 134.811 22.8979C134.873 22.3667 135.061 21.8823 135.373 21.4448C135.691 21.0073 136.118 20.6714 136.655 20.437C137.191 20.2026 137.816 20.0854 138.53 20.0854C139.207 20.0854 139.814 20.1974 140.35 20.4214C140.892 20.6401 141.327 20.9709 141.655 21.4136C141.983 21.8563 142.178 22.3381 142.241 22.8589C142.303 23.3797 142.334 24.2912 142.334 25.5933V27.7573ZM139.045 23.6011C139.045 23.0125 139.011 22.6375 138.944 22.4761C138.881 22.3094 138.748 22.2261 138.545 22.2261C138.373 22.2261 138.241 22.2938 138.147 22.4292C138.058 22.5594 138.014 22.95 138.014 23.6011V29.5073C138.014 30.2417 138.043 30.6948 138.1 30.8667C138.162 31.0386 138.303 31.1245 138.522 31.1245C138.746 31.1245 138.889 31.0256 138.952 30.8276C139.014 30.6297 139.045 30.1584 139.045 29.4136V23.6011ZM151.073 32.9995H148.323V27.2417L146.612 32.9995H143.729V20.3433H146.479V26.0542L148.323 20.3433H151.073V32.9995ZM148.268 17.5933H149.596C149.565 18.3016 149.356 18.8719 148.971 19.3042C148.591 19.7365 148.059 19.9526 147.377 19.9526C146.69 19.9526 146.156 19.7365 145.776 19.3042C145.401 18.8667 145.198 18.2964 145.166 17.5933H146.494C146.557 18.3068 146.851 18.6636 147.377 18.6636C147.908 18.6636 148.205 18.3068 148.268 17.5933Z" fill="white"/>
</svg>
