<svg width="184" height="55" viewBox="0 0 184 55" fill="none" xmlns="http://www.w3.org/2000/svg">
<path d="M29.1269 49.7453L29.1217 0C26.321 2.78361 23.4475 5.52192 20.7223 8.37726C20.6903 9.50281 20.7165 10.6347 20.719 11.7609C19.9184 12.6847 18.997 13.5275 18.1298 14.3895C16.5427 15.9561 14.9636 17.531 13.3927 19.114C13.3336 21.8249 13.3973 24.543 13.3655 27.2554C12.4046 28.5188 11.0434 29.6369 9.92401 30.7713C9.84538 32.6119 9.9058 34.4792 9.90542 36.3223L9.92459 45.9265C8.78219 45.9154 7.64869 45.9649 6.52218 46.1689C4.13532 46.6011 2.39741 47.6611 1.01855 49.6443C7.27823 47.8366 17.1528 50.754 23.3079 52.5796L24.1214 52.8027C25.3606 53.0338 26.5974 53.4142 27.8283 53.6978C31.2773 54.4924 34.9486 55.1509 38.5028 54.9697C43.0065 54.7399 47.9038 53.1578 50.9995 49.7387C48.3469 51.284 45.48 51.6418 42.4629 51.7232L42.4529 30.3882C41.3422 29.4711 40.1975 28.4593 39.1953 27.427L39.1975 18.9304C36.6822 16.7188 34.2851 14.3771 31.7884 12.1445L31.7931 50.3821C30.9031 50.1746 30.0144 49.9624 29.1269 49.7453Z" fill="white"/>
<path d="M20.791 11.9038C21.4675 12.3172 22.8198 13.8713 23.4571 14.5166C23.4509 25.7997 23.351 37.0921 23.4693 48.3742C22.5825 48.1378 21.6909 47.9207 20.7945 47.7229L20.791 11.9038Z" fill="#1A427F"/>
<path d="M39.0984 27.5371C39.2498 28.1552 39.1061 32.4714 39.1058 33.4014L39.1263 51.5684C38.2007 51.4656 37.2768 51.3497 36.3544 51.2208C36.1153 51.1818 35.9961 51.1928 35.8122 51.0301C35.7781 50.9449 35.7461 50.8666 35.7394 50.7739C35.7024 50.263 35.7719 49.6894 35.7721 49.1702L35.7713 44.6036L35.7667 30.4233C36.7965 29.4049 37.9959 28.4816 39.0984 27.5371Z" fill="#1A427F"/>
<path d="M13.4604 27.3833C14.1583 27.8177 16.0643 29.9246 16.7617 30.6279C16.8119 31.8352 16.7747 33.0593 16.7749 34.2687L16.7695 41.1433L16.7811 44.7704C16.7846 45.4394 16.8363 46.1614 16.7454 46.8243C15.6871 46.5399 14.5391 46.3772 13.4503 46.2551C13.5909 39.9699 13.3825 33.6708 13.4604 27.3833Z" fill="#1A427F"/>
<path d="M4.58897 50.4288C8.86014 49.9946 14.5954 51.5975 18.7347 52.6949C17.2882 52.7765 15.8309 52.5372 14.4017 52.3429C10.7851 51.7603 7.09493 50.9503 3.41481 50.9933C2.26834 51.0066 1.14298 51.2509 0 51.3172C1.53166 50.8645 2.99728 50.558 4.58897 50.4288Z" fill="#1A427F"/>
<path d="M61.2832 41H57.1621V28.3438H55.9414V41H51.8203V25.1797H61.2832V41ZM63.1336 25.1895H67.2742C68.394 25.1895 69.2534 25.2773 69.8523 25.4531C70.4578 25.6289 70.9103 25.8828 71.2098 26.2148C71.5158 26.5469 71.7208 26.9505 71.825 27.4258C71.9357 27.8945 71.991 28.6237 71.991 29.6133V30.9902C71.991 31.9993 71.8868 32.735 71.6785 33.1973C71.4702 33.6595 71.0861 34.0143 70.5262 34.2617C69.9728 34.5091 69.2469 34.6328 68.3484 34.6328H67.2449V41H63.1336V25.1895ZM67.2449 27.8945V31.918C67.3621 31.9245 67.463 31.9277 67.5477 31.9277C67.9253 31.9277 68.1857 31.8366 68.3289 31.6543C68.4786 31.4655 68.5535 31.0781 68.5535 30.4922V29.1934C68.5535 28.653 68.4689 28.3014 68.2996 28.1387C68.1303 27.9759 67.7788 27.8945 67.2449 27.8945ZM82.7672 34.4473C82.7672 36.0358 82.7281 37.1621 82.65 37.8262C82.5784 38.4837 82.344 39.0859 81.9469 39.6328C81.5562 40.1797 81.0257 40.5996 80.3551 40.8926C79.6845 41.1855 78.9033 41.332 78.0113 41.332C77.165 41.332 76.4033 41.1953 75.7262 40.9219C75.0556 40.6419 74.5152 40.2253 74.1051 39.6719C73.6949 39.1185 73.4508 38.5163 73.3727 37.8652C73.2945 37.2142 73.2555 36.0749 73.2555 34.4473V31.7422C73.2555 30.1536 73.2913 29.0306 73.3629 28.373C73.441 27.709 73.6754 27.1035 74.066 26.5566C74.4632 26.0098 74.997 25.5898 75.6676 25.2969C76.3382 25.0039 77.1194 24.8574 78.0113 24.8574C78.8577 24.8574 79.6161 24.9974 80.2867 25.2773C80.9638 25.5508 81.5074 25.9642 81.9176 26.5176C82.3277 27.071 82.5719 27.6732 82.65 28.3242C82.7281 28.9753 82.7672 30.1146 82.7672 31.7422V34.4473ZM78.6559 29.252C78.6559 28.5163 78.6135 28.0475 78.5289 27.8457C78.4508 27.6374 78.2848 27.5332 78.0309 27.5332C77.816 27.5332 77.65 27.6178 77.5328 27.7871C77.4221 27.9499 77.3668 28.4382 77.3668 29.252V36.6348C77.3668 37.5527 77.4026 38.1191 77.4742 38.334C77.5523 38.5488 77.7281 38.6562 78.0016 38.6562C78.2815 38.6562 78.4605 38.5326 78.5387 38.2852C78.6168 38.0378 78.6559 37.4486 78.6559 36.5176V29.252ZM97.1957 25.1895V41H93.602V30.3262L92.1664 41H89.6176L88.1039 30.5703V41H84.5102V25.1895H89.8324C89.9887 26.14 90.1547 27.2598 90.3305 28.5488L90.8969 32.5723L91.8344 25.1895H97.1957ZM106.185 28.3438H103.167V41H99.0461V25.1797H106.185V28.3438ZM107.488 25.1895H111.629C112.749 25.1895 113.608 25.2773 114.207 25.4531C114.812 25.6289 115.265 25.8828 115.564 26.2148C115.87 26.5469 116.076 26.9505 116.18 27.4258C116.29 27.8945 116.346 28.6237 116.346 29.6133V30.9902C116.346 31.9993 116.242 32.735 116.033 33.1973C115.825 33.6595 115.441 34.0143 114.881 34.2617C114.327 34.5091 113.602 34.6328 112.703 34.6328H111.6V41H107.488V25.1895ZM111.6 27.8945V31.918C111.717 31.9245 111.818 31.9277 111.902 31.9277C112.28 31.9277 112.54 31.8366 112.684 31.6543C112.833 31.4655 112.908 31.0781 112.908 30.4922V29.1934C112.908 28.653 112.824 28.3014 112.654 28.1387C112.485 27.9759 112.133 27.8945 111.6 27.8945ZM124.827 25.1895L127.18 41H122.971L122.766 38.1582H121.292L121.048 41H116.79L118.88 25.1895H124.827ZM122.649 35.3555C122.441 33.5651 122.233 31.3548 122.024 28.7246C121.608 31.7454 121.347 33.9557 121.243 35.3555H122.649ZM139.841 43.7246H137V41H130.359V43.7246H127.527V37.6992H128.367C128.81 36.4036 129.171 34.7012 129.451 32.5918C129.737 30.4759 129.88 28.1647 129.88 25.6582V25.1797H139.002V37.6797H139.841V43.7246ZM134.88 37.6797V28.3047H133.66V28.4219C133.66 31.4492 133.334 34.5352 132.683 37.6797H134.88ZM150.93 32.084H146.819V29.3301C146.819 28.5293 146.773 28.0312 146.682 27.8359C146.597 27.6341 146.405 27.5332 146.106 27.5332C145.767 27.5332 145.552 27.6536 145.461 27.8945C145.37 28.1354 145.325 28.6562 145.325 29.457V36.8008C145.325 37.569 145.37 38.0703 145.461 38.3047C145.552 38.5391 145.758 38.6562 146.077 38.6562C146.383 38.6562 146.581 38.5391 146.672 38.3047C146.77 38.0703 146.819 37.5202 146.819 36.6543V34.6719H150.93V35.2871C150.93 36.9212 150.813 38.0801 150.579 38.7637C150.351 39.4473 149.84 40.0462 149.045 40.5605C148.258 41.0749 147.284 41.332 146.125 41.332C144.921 41.332 143.928 41.1139 143.147 40.6777C142.366 40.2415 141.848 39.6393 141.594 38.8711C141.34 38.0964 141.213 36.9342 141.213 35.3848V30.7656C141.213 29.6263 141.252 28.7734 141.33 28.207C141.409 27.6341 141.64 27.084 142.024 26.5566C142.414 26.0293 142.952 25.6159 143.635 25.3164C144.325 25.0104 145.116 24.8574 146.008 24.8574C147.219 24.8574 148.218 25.0918 149.006 25.5605C149.794 26.0293 150.312 26.6152 150.559 27.3184C150.806 28.015 150.93 29.1022 150.93 30.5801V32.084ZM160.886 25.1895V28.3535H158.445V41H154.333V28.3535H151.902V25.1895H160.886ZM171.418 34.4473C171.418 36.0358 171.379 37.1621 171.301 37.8262C171.229 38.4837 170.995 39.0859 170.598 39.6328C170.207 40.1797 169.676 40.5996 169.006 40.8926C168.335 41.1855 167.554 41.332 166.662 41.332C165.816 41.332 165.054 41.1953 164.377 40.9219C163.706 40.6419 163.166 40.2253 162.756 39.6719C162.346 39.1185 162.102 38.5163 162.023 37.8652C161.945 37.2142 161.906 36.0749 161.906 34.4473V31.7422C161.906 30.1536 161.942 29.0306 162.014 28.373C162.092 27.709 162.326 27.1035 162.717 26.5566C163.114 26.0098 163.648 25.5898 164.318 25.2969C164.989 25.0039 165.77 24.8574 166.662 24.8574C167.508 24.8574 168.267 24.9974 168.938 25.2773C169.615 25.5508 170.158 25.9642 170.568 26.5176C170.979 27.071 171.223 27.6732 171.301 28.3242C171.379 28.9753 171.418 30.1146 171.418 31.7422V34.4473ZM167.307 29.252C167.307 28.5163 167.264 28.0475 167.18 27.8457C167.102 27.6374 166.936 27.5332 166.682 27.5332C166.467 27.5332 166.301 27.6178 166.184 27.7871C166.073 27.9499 166.018 28.4382 166.018 29.252V36.6348C166.018 37.5527 166.053 38.1191 166.125 38.334C166.203 38.5488 166.379 38.6562 166.652 38.6562C166.932 38.6562 167.111 38.5326 167.189 38.2852C167.268 38.0378 167.307 37.4486 167.307 36.5176V29.252ZM182.341 41H178.903V33.8027L176.764 41H173.161V25.1797H176.598V32.3184L178.903 25.1797H182.341V41ZM178.835 21.7422H180.495C180.456 22.6276 180.195 23.3405 179.714 23.8809C179.238 24.4212 178.574 24.6914 177.721 24.6914C176.862 24.6914 176.195 24.4212 175.72 23.8809C175.251 23.334 174.997 22.6211 174.958 21.7422H176.618C176.696 22.6341 177.064 23.0801 177.721 23.0801C178.386 23.0801 178.757 22.6341 178.835 21.7422Z" fill="white"/>
</svg>
