<svg width="125" height="30" viewBox="0 0 125 30" fill="none" xmlns="http://www.w3.org/2000/svg">
<path d="M15.9918 27.1338L15.9889 0C14.4513 1.51833 12.8736 3.01196 11.3774 4.56941C11.3599 5.18335 11.3742 5.80076 11.3756 6.41501C10.9361 6.91895 10.4302 7.37862 9.95406 7.8488C9.0827 8.70335 8.21576 9.56235 7.35326 10.4258C7.32083 11.9045 7.35581 13.3871 7.33838 14.8666C6.8108 15.5557 6.06344 16.1656 5.44889 16.7843C5.40572 17.7883 5.43889 18.8068 5.43868 19.8122L5.44921 25.0508C4.822 25.0447 4.19968 25.0718 3.5812 25.183C2.27075 25.4188 1.3166 25.997 0.55957 27.0787C3.99629 26.0927 9.41765 27.684 12.797 28.6798L13.2436 28.8015C13.924 28.9275 14.603 29.135 15.2788 29.2897C17.1724 29.7231 19.188 30.0823 21.1394 29.9835C23.612 29.8581 26.3008 28.9952 28.0004 27.1302C26.544 27.9731 24.97 28.1683 23.3136 28.2127L23.3081 16.5754C22.6983 16.0751 22.0698 15.5232 21.5196 14.9602L21.5207 10.3257C20.1398 9.11937 18.8237 7.84207 17.453 6.62429L17.4556 27.4811C16.967 27.368 16.479 27.2522 15.9918 27.1338Z" fill="white"/>
<path d="M11.4141 6.49316C11.7855 6.71863 12.5279 7.56635 12.8778 7.91832C12.8744 14.0727 12.8196 20.2322 12.8845 26.3861C12.3976 26.2572 11.9081 26.1388 11.416 26.0309L11.4141 6.49316Z" fill="#1A427F"/>
<path d="M21.4664 15.0205C21.5495 15.3577 21.4706 17.7119 21.4704 18.2192L21.4817 28.1285C20.9735 28.0724 20.4662 28.0092 19.9599 27.9389C19.8285 27.9176 19.7631 27.9236 19.6621 27.8349C19.6434 27.7884 19.6259 27.7457 19.6222 27.6951C19.6019 27.4164 19.64 27.1036 19.6401 26.8204L19.6397 24.3295L19.6372 16.5948C20.2026 16.0393 20.8611 15.5357 21.4664 15.0205Z" fill="#1A427F"/>
<path d="M7.38977 14.9365C7.77297 15.1735 8.81941 16.3227 9.20228 16.7063C9.22982 17.3648 9.2094 18.0325 9.20951 18.6922L9.20653 22.442L9.21291 24.4204C9.21483 24.7853 9.24321 25.1791 9.19335 25.5407C8.61229 25.3856 7.982 25.2968 7.38424 25.2302C7.46144 21.8019 7.34703 18.3661 7.38977 14.9365Z" fill="#1A427F"/>
<path d="M2.51946 27.507C4.86444 27.2702 8.01323 28.1445 10.2858 28.7431C9.49167 28.7876 8.69158 28.6571 7.90691 28.5511C5.9213 28.2333 3.8953 27.7915 1.87482 27.8149C1.24538 27.8222 0.627526 27.9554 0 27.9916C0.840918 27.7447 1.64558 27.5775 2.51946 27.507Z" fill="#1A427F"/>
<path d="M39.1982 23H36.3135V14.1406H35.459V23H32.5742V11.9258H39.1982V23ZM40.4935 11.9326H43.392C44.1758 11.9326 44.7774 11.9941 45.1966 12.1172C45.6205 12.2402 45.9372 12.418 46.1468 12.6504C46.361 12.8828 46.5046 13.1654 46.5775 13.498C46.655 13.8262 46.6937 14.3366 46.6937 15.0293V15.9932C46.6937 16.6995 46.6208 17.2145 46.475 17.5381C46.3291 17.8617 46.0602 18.11 45.6683 18.2832C45.281 18.4564 44.7728 18.543 44.1439 18.543H43.3714V23H40.4935V11.9326ZM43.3714 13.8262V16.6426C43.4535 16.6471 43.5241 16.6494 43.5834 16.6494C43.8477 16.6494 44.03 16.5856 44.1302 16.458C44.2351 16.3258 44.2875 16.0547 44.2875 15.6445V14.7354C44.2875 14.3571 44.2282 14.111 44.1097 13.9971C43.9912 13.8831 43.7451 13.8262 43.3714 13.8262ZM54.237 18.4131C54.237 19.5251 54.2097 20.3135 54.155 20.7783C54.1049 21.2386 53.9408 21.6602 53.6628 22.043C53.3894 22.4258 53.018 22.7197 52.5486 22.9248C52.0792 23.1299 51.5323 23.2324 50.9079 23.2324C50.3155 23.2324 49.7823 23.1367 49.3083 22.9453C48.8389 22.7493 48.4607 22.4577 48.1736 22.0703C47.8864 21.6829 47.7155 21.2614 47.6609 20.8057C47.6062 20.3499 47.5788 19.5524 47.5788 18.4131V16.5195C47.5788 15.4076 47.6039 14.6214 47.654 14.1611C47.7087 13.6963 47.8728 13.2725 48.1462 12.8896C48.4242 12.5068 48.7979 12.2129 49.2673 12.0078C49.7367 11.8027 50.2836 11.7002 50.9079 11.7002C51.5004 11.7002 52.0313 11.7982 52.5007 11.9941C52.9747 12.1855 53.3552 12.4749 53.6423 12.8623C53.9294 13.2497 54.1003 13.6712 54.155 14.127C54.2097 14.5827 54.237 15.3802 54.237 16.5195V18.4131ZM51.3591 14.7764C51.3591 14.2614 51.3295 13.9333 51.2702 13.792C51.2155 13.6462 51.0993 13.5732 50.9216 13.5732C50.7712 13.5732 50.655 13.6325 50.573 13.751C50.4955 13.8649 50.4568 14.2067 50.4568 14.7764V19.9443C50.4568 20.5869 50.4818 20.9834 50.532 21.1338C50.5866 21.2842 50.7097 21.3594 50.9011 21.3594C51.0971 21.3594 51.2224 21.2728 51.2771 21.0996C51.3318 20.9264 51.3591 20.514 51.3591 19.8623V14.7764ZM64.337 11.9326V23H61.8214V15.5283L60.8165 23H59.0323L57.9727 15.6992V23H55.4571V11.9326H59.1827C59.2921 12.598 59.4083 13.3818 59.5313 14.2842L59.9278 17.1006L60.5841 11.9326H64.337ZM70.6293 14.1406H68.517V23H65.6323V11.9258H70.6293V14.1406ZM71.5418 11.9326H74.4402C75.2241 11.9326 75.8257 11.9941 76.2449 12.1172C76.6688 12.2402 76.9855 12.418 77.1951 12.6504C77.4093 12.8828 77.5529 13.1654 77.6258 13.498C77.7033 13.8262 77.742 14.3366 77.742 15.0293V15.9932C77.742 16.6995 77.6691 17.2145 77.5232 17.5381C77.3774 17.8617 77.1085 18.11 76.7166 18.2832C76.3292 18.4564 75.8211 18.543 75.1922 18.543H74.4197V23H71.5418V11.9326ZM74.4197 13.8262V16.6426C74.5018 16.6471 74.5724 16.6494 74.6316 16.6494C74.896 16.6494 75.0783 16.5856 75.1785 16.458C75.2833 16.3258 75.3357 16.0547 75.3357 15.6445V14.7354C75.3357 14.3571 75.2765 14.111 75.158 13.9971C75.0395 13.8831 74.7934 13.8262 74.4197 13.8262ZM83.6789 11.9326L85.3263 23H82.38L82.2365 21.0107H81.2043L81.0334 23H78.0529L79.5158 11.9326H83.6789ZM82.1545 19.0488C82.0086 17.7956 81.8628 16.2484 81.717 14.4072C81.4253 16.5218 81.243 18.069 81.1701 19.0488H82.1545ZM94.189 24.9072H92.1997V23H87.5513V24.9072H85.5689V20.6895H86.1568C86.4667 19.7826 86.7196 18.5908 86.9155 17.1143C87.1161 15.6331 87.2163 14.0153 87.2163 12.2607V11.9258H93.6011V20.6758H94.189V24.9072ZM90.7163 20.6758V14.1133H89.8618V14.1953C89.8618 16.3145 89.634 18.4746 89.1782 20.6758H90.7163ZM101.951 16.7588H99.0731V14.8311C99.0731 14.2705 99.0412 13.9219 98.9774 13.7852C98.9182 13.6439 98.7837 13.5732 98.5741 13.5732C98.3371 13.5732 98.1867 13.6576 98.1229 13.8262C98.0591 13.9948 98.0272 14.3594 98.0272 14.9199V20.0605C98.0272 20.5983 98.0591 20.9492 98.1229 21.1133C98.1867 21.2773 98.3303 21.3594 98.5536 21.3594C98.7678 21.3594 98.9068 21.2773 98.9706 21.1133C99.0389 20.9492 99.0731 20.5641 99.0731 19.958V18.5703H101.951V19.001C101.951 20.1449 101.869 20.9561 101.705 21.4346C101.545 21.9131 101.188 22.3324 100.632 22.6924C100.08 23.0524 99.399 23.2324 98.5878 23.2324C97.7447 23.2324 97.0497 23.0798 96.5028 22.7744C95.9559 22.4691 95.5936 22.0475 95.4159 21.5098C95.2382 20.9674 95.1493 20.154 95.1493 19.0693V15.8359C95.1493 15.0384 95.1766 14.4414 95.2313 14.0449C95.286 13.6439 95.4478 13.2588 95.7167 12.8896C95.9901 12.5205 96.3661 12.2311 96.8446 12.0215C97.3277 11.8073 97.8814 11.7002 98.5057 11.7002C99.3534 11.7002 100.053 11.8643 100.604 12.1924C101.156 12.5205 101.518 12.9307 101.691 13.4229C101.864 13.9105 101.951 14.6715 101.951 15.7061V16.7588ZM108.92 11.9326V14.1475H107.211V23H104.333V14.1475H102.631V11.9326H108.92ZM116.293 18.4131C116.293 19.5251 116.265 20.3135 116.211 20.7783C116.16 21.2386 115.996 21.6602 115.718 22.043C115.445 22.4258 115.074 22.7197 114.604 22.9248C114.135 23.1299 113.588 23.2324 112.963 23.2324C112.371 23.2324 111.838 23.1367 111.364 22.9453C110.894 22.7493 110.516 22.4577 110.229 22.0703C109.942 21.6829 109.771 21.2614 109.716 20.8057C109.662 20.3499 109.634 19.5524 109.634 18.4131V16.5195C109.634 15.4076 109.659 14.6214 109.71 14.1611C109.764 13.6963 109.928 13.2725 110.202 12.8896C110.48 12.5068 110.853 12.2129 111.323 12.0078C111.792 11.8027 112.339 11.7002 112.963 11.7002C113.556 11.7002 114.087 11.7982 114.556 11.9941C115.03 12.1855 115.411 12.4749 115.698 12.8623C115.985 13.2497 116.156 13.6712 116.211 14.127C116.265 14.5827 116.293 15.3802 116.293 16.5195V18.4131ZM113.415 14.7764C113.415 14.2614 113.385 13.9333 113.326 13.792C113.271 13.6462 113.155 13.5732 112.977 13.5732C112.827 13.5732 112.711 13.6325 112.629 13.751C112.551 13.8649 112.512 14.2067 112.512 14.7764V19.9443C112.512 20.5869 112.537 20.9834 112.588 21.1338C112.642 21.2842 112.765 21.3594 112.957 21.3594C113.153 21.3594 113.278 21.2728 113.333 21.0996C113.387 20.9264 113.415 20.514 113.415 19.8623V14.7764ZM123.938 23H121.532V17.9619L120.035 23H117.513V11.9258H119.919V16.9229L121.532 11.9258H123.938V23ZM121.484 9.51953H122.646C122.619 10.1393 122.437 10.6383 122.1 11.0166C121.767 11.3949 121.302 11.584 120.705 11.584C120.103 11.584 119.636 11.3949 119.304 11.0166C118.976 10.6338 118.798 10.1348 118.77 9.51953H119.933C119.987 10.1439 120.245 10.4561 120.705 10.4561C121.17 10.4561 121.43 10.1439 121.484 9.51953Z" fill="white"/>
</svg>
