<svg xmlns="http://www.w3.org/2000/svg" xmlns:xlink="http://www.w3.org/1999/xlink" xmlns:inkscape="http://www.inkscape.org/namespaces/inkscape" version="1.1" width="595.2756" height="651.9685" viewBox="0 0 595.2756 651.9685">
<g inkscape:groupmode="layer" inkscape:label="&#x0421;&#x043B;&#x043E;&#x0439; 1">
<path transform="matrix(1,0,0,-1,0,651.9685)" d="M297.4357 606.4248C425.3953 606.4248 529.1274 502.6927 529.1274 374.7331 529.1274 246.7732 425.3953 143.041 297.4357 143.041 169.4761 143.041 65.7439 246.7732 65.7439 374.7331 65.7439 502.6927 169.4761 606.4248 297.4357 606.4248ZM297.4357 601.2746C422.551 601.2746 523.9772 499.8484 523.9772 374.7331 523.9772 249.6178 422.551 148.1913 297.4357 148.1913 172.3204 148.1913 70.8942 249.6178 70.8942 374.7331 70.8942 499.8484 172.3204 601.2746 297.4357 601.2746" fill="#e31e24" fill-rule="evenodd"/>
<path transform="matrix(1,0,0,-1,0,651.9685)" d="M83.9398 56.2127V115.7927H94.0935V56.2127ZM65.7442 56.2127V115.7927H75.8979V56.2127ZM71.0728 106.0724V115.7927H90.0797V106.0724ZM106.1495 79.3174V89.0796H116.6808C117.9255 89.0796 118.9185 89.4991 119.6178 90.3662 120.3313 91.2195 120.695 92.4222 120.695 93.9467V100.9536C120.695 102.562 120.3452 103.8209 119.6597 104.7019 118.9885 105.5971 117.9816 106.0305 116.6808 106.0444H106.1495V115.7927H116.9606C119.9117 115.7927 122.4292 115.2751 124.5271 114.2263 126.6109 113.1914 128.2054 111.6808 129.31 109.6809 130.415 107.6947 130.9745 105.2753 130.9745 102.4362V92.3941C130.9745 89.6391 130.415 87.2753 129.2961 85.3313 128.1773 83.3734 126.5828 81.8768 124.4991 80.856 122.4292 79.835 119.9117 79.3174 116.9606 79.3174ZM101.3944 56.2127V115.7927H111.5481V56.2127ZM152.4847 55.5973C149.2821 55.5973 146.5407 56.1569 144.2611 57.2615 141.9812 58.3665 140.2469 59.961 139.0442 62.0447 137.8414 64.1426 137.2402 66.6601 137.2402 69.6112V102.3942C137.2402 105.3731 137.8414 107.9048 139.0442 109.9885 140.2469 112.0864 141.9812 113.6667 144.2611 114.7717 146.5407 115.8627 149.2821 116.4081 152.4847 116.4081 155.6736 116.4081 158.4147 115.8627 160.6944 114.7717 162.9743 113.6667 164.7224 112.0864 165.9251 109.9885 167.114 107.9048 167.7155 105.3731 167.7155 102.3942V69.6112C167.7155 66.6601 167.114 64.1426 165.9251 62.0447 164.7224 59.961 162.9743 58.3665 160.6944 57.2615 158.4147 56.1569 155.6736 55.5973 152.4847 55.5973ZM152.4847 65.7652C154.0653 65.7652 155.2819 66.1986 156.149 67.0938 157.0022 67.9748 157.4357 69.2614 157.4357 70.926V101.1634C157.4357 102.7718 157.0161 104.0306 156.1629 104.9255 155.3238 105.8346 154.093 106.2822 152.4847 106.2822 150.9182 106.2822 149.7155 105.8346 148.8484 104.9255 147.9951 104.0306 147.5617 102.7718 147.5617 101.1634V70.926C147.5617 69.2614 147.9951 67.9748 148.8484 67.0938 149.7155 66.1986 150.9182 65.7652 152.4847 65.7652ZM193.8268 83.4154 203.9528 115.7927H213.4491V56.2127H204.4003V97.8069L205.0157 95.1775 196.3723 66.744H191.2816L182.6382 94.3662 183.4634 97.8069V56.2127H174.2049V115.7927H183.9529ZM220.75 56.2127V115.7927H230.9037V56.2127ZM226.8476 106.0444V115.7927H243.1134V106.0444ZM252.7078 79.3174V89.0796H263.2391C264.4838 89.0796 265.4768 89.4991 266.1761 90.3662 266.8895 91.2195 267.2532 92.4222 267.2532 93.9467V100.9536C267.2532 102.562 266.9034 103.8209 266.218 104.7019 265.5468 105.5971 264.5399 106.0305 263.2391 106.0444H252.7078V115.7927H263.5189C266.47 115.7927 268.9875 115.2751 271.0854 114.2263 273.1691 113.1914 274.7636 111.6808 275.8683 109.6809 276.9732 107.6947 277.5328 105.2753 277.5328 102.4362V92.3941C277.5328 89.6391 276.9732 87.2753 275.8544 85.3313 274.7356 83.3734 273.1411 81.8768 271.0573 80.856 268.9875 79.835 266.47 79.3174 263.5189 79.3174ZM247.9527 56.2127V115.7927H258.1064V56.2127ZM278.4838 56.2127 292.6936 115.7927H299.8264L314.0498 56.2127H303.9661L296.2599 95.2614 288.5536 56.2127ZM288.148 65.4715V74.9818H304.3718V65.4715ZM317.7283 58.9119V65.9608H318.6794C320.3155 65.9608 321.5463 66.9957 322.3576 69.0378 323.1828 71.0799 323.5884 74.1146 323.5884 78.1285V115.7927H332.8889V80.716C332.8889 76.4504 332.4974 72.6883 331.6861 69.4295 330.8749 66.1567 329.5043 63.5973 327.5742 61.7233 325.6302 59.849 322.9311 58.9119 319.4904 58.9119ZM316.6234 45.5136V65.9608H325.9658V45.5136ZM316.6234 56.2127V65.9608H351.6579V56.2127ZM345.3083 45.5136V65.9608H354.651V45.5136ZM339.7 56.2127V115.7927H349.854V56.2127ZM330.931 106.0444V115.7927H344.5251V106.0444ZM374.8048 55.5973C371.7978 55.5973 369.2384 56.1988 367.0985 57.3735 364.9728 58.5624 363.3364 60.2966 362.2037 62.5623 361.0706 64.8281 360.5114 67.5692 360.5114 70.7581V101.2473C360.5114 104.4641 361.0706 107.2054 362.2037 109.457 363.3364 111.7089 364.9728 113.4292 367.0985 114.6178 369.2384 115.8066 371.7978 116.4081 374.8048 116.4081 377.8398 116.4081 380.427 115.8066 382.553 114.6178 384.679 113.4292 386.3013 111.7089 387.434 109.4431 388.5531 107.1774 389.1124 104.4221 389.1124 101.2054V96.4083H378.8186V101.2054C378.8186 102.2125 378.6789 103.0796 378.3713 103.8067 378.0777 104.5341 377.6159 105.0934 377.0147 105.499 376.4132 105.9185 375.6861 106.1144 374.8048 106.1144 373.574 106.1144 372.6091 105.6949 371.8959 104.8277 371.1824 103.9745 370.8329 102.7718 370.8329 101.2473V70.7581C370.8329 69.2337 371.1824 68.0448 371.8959 67.1916 372.6091 66.3525 373.574 65.9188 374.8048 65.9188 376.1195 65.9188 377.1125 66.3525 377.7979 67.2197 378.483 68.0729 378.8186 69.2756 378.8186 70.8001V75.5972H389.1124V70.8001C389.1124 67.5833 388.5531 64.8281 387.434 62.5623 386.3013 60.2966 384.679 58.5624 382.553 57.3735 380.427 56.1988 377.8398 55.5973 374.8048 55.5973ZM401.3223 56.2127V110.7856H411.476V56.2127ZM391.4901 106.0444V115.7927H421.3222V106.0444ZM430.9163 79.3174V89.0796H441.4476C442.6923 89.0796 443.6853 89.4991 444.3846 90.3662 445.098 91.2195 445.4617 92.4222 445.4617 93.9467V100.9536C445.4617 102.562 445.1119 103.8209 444.4265 104.7019 443.7553 105.5971 442.7484 106.0305 441.4476 106.0444H430.9163V115.7927H441.7274C444.6785 115.7927 447.196 115.2751 449.2939 114.2263 451.3776 113.1914 452.9721 111.6808 454.0768 109.6809 455.1817 107.6947 455.7413 105.2753 455.7413 102.4362V92.3941C455.7413 89.6391 455.1817 87.2753 454.0629 85.3313 452.9441 83.3734 451.3496 81.8768 449.2658 80.856 447.196 79.835 444.6785 79.3174 441.7274 79.3174ZM426.1612 56.2127V115.7927H436.3149V56.2127ZM477.2514 55.5973C474.0489 55.5973 471.3075 56.1569 469.0278 57.2615 466.7479 58.3665 465.0137 59.961 463.811 62.0447 462.6082 64.1426 462.007 66.6601 462.007 69.6112V102.3942C462.007 105.3731 462.6082 107.9048 463.811 109.9885 465.0137 112.0864 466.7479 113.6667 469.0278 114.7717 471.3075 115.8627 474.0489 116.4081 477.2514 116.4081 480.4404 116.4081 483.1815 115.8627 485.4611 114.7717 487.741 113.6667 489.4892 112.0864 490.6919 109.9885 491.8808 107.9048 492.4823 105.3731 492.4823 102.3942V69.6112C492.4823 66.6601 491.8808 64.1426 490.6919 62.0447 489.4892 59.961 487.741 58.3665 485.4611 57.2615 483.1815 56.1569 480.4404 55.5973 477.2514 55.5973ZM477.2514 65.7652C478.832 65.7652 480.0487 66.1986 480.9158 67.0938 481.769 67.9748 482.2024 69.2614 482.2024 70.926V101.1634C482.2024 102.7718 481.7829 104.0306 480.9297 104.9255 480.0906 105.8346 478.8598 106.2822 477.2514 106.2822 475.685 106.2822 474.4823 105.8346 473.6151 104.9255 472.7619 104.0306 472.3285 102.7718 472.3285 101.1634V70.926C472.3285 69.2614 472.7619 67.9748 473.6151 67.0938 474.4823 66.1986 475.685 65.7652 477.2514 65.7652ZM529.1252 56.2547H519.8664V96.8139L520.7615 95.5831 507.1671 56.2547H498.9716V115.7927H508.2301V74.8979L507.2791 76.1287 521.0133 115.7927H529.1252ZM516.9994 132.4638 524.9852 132.5477C524.9852 128.5897 524.0483 125.513 522.1602 123.3312 520.272 121.1494 517.6287 120.0444 514.2161 120.0444H513.8804C510.4678 120.0444 507.8245 121.1494 505.9363 123.3312 504.0485 125.513 503.1113 128.5897 503.1113 132.5477L511.0974 132.4638C511.0974 130.8555 511.3349 129.5969 511.8106 128.7017 512.286 127.7926 512.9853 127.345 513.8804 127.345H514.2161C515.0832 127.345 515.7686 127.7926 516.2581 128.7017 516.7477 129.5969 516.9994 130.8555 516.9994 132.4638" fill="#e31e24"/>
<path transform="matrix(1,0,0,-1,0,651.9685)" d="M289.4964 426.6547C296.1096 426.6547 303.8457 427.2809 309.5152 428.5638 325.7923 432.2486 341.8809 437.4408 357.8309 442.5041L385.4942 450.8833C395.9955 454.1037 413.5725 460.1769 423.0814 460.1769 426.221 460.1769 429.3391 459.6582 432.0513 459.0649 434.1019 458.6168 435.9203 458.0563 437.7027 457.1552 438.3391 456.8335 438.6849 456.5778 439.4645 456.3961 438.7955 455.4833 439.6275 456.2804 438.5752 455.773 433.3465 453.2516 406.4547 445.809 397.5324 442.878L381.7797 437.963C380.0667 437.3884 378.2506 436.8628 376.365 436.32 363.8996 432.7333 351.7319 428.5987 339.2563 425.0358 333.9938 423.5329 328.6071 421.9875 323.7712 419.601 320.7229 418.0969 317.5101 416.6904 314.6981 414.8118 309.1592 411.1106 304.2343 406.8816 300.757 401.0272 296.9189 394.5651 294.5373 387.0689 294.5373 379.2699V243.6684C294.5373 241.8596 294.7133 240.8102 294.7966 239.379 294.8905 237.7613 294.52 236.7116 294.5364 234.8476 294.5591 232.2751 294.0814 227.5373 292.0167 227.5373 289.22 227.5373 286.1158 230.4601 285.0092 232.3757 283.7038 234.6352 282.7837 238.7409 282.6828 242.1479 281.9863 265.6449 282.187 289.8652 282.187 313.4854 282.187 315.5009 282.5065 382.2863 282.1201 385.2516 280.7802 395.5292 277.9339 403.3797 272.3564 411.2793 266.7736 419.1866 258.3346 423.1953 250.1881 427.926L240.4346 433.2951C236.486 435.2831 232.8191 437.6117 228.837 439.5932L193.9737 458.6678C187.5844 461.9758 172.283 471.0373 166.4643 473.2503 158.2248 476.384 149.891 476.9677 143.2457 470.3221 138.1887 465.2654 136.2518 458.062 136.2518 449.591V299.6229C136.2518 287.7917 152.6241 288.0734 152.8968 299.361 153.0397 305.2655 153.1389 310.5516 153.1389 316.51V430.9396C153.1389 434.5325 152.7041 449.3305 153.2392 453.0192 153.6389 455.7716 153.8405 456.908 154.9032 458.9167 158.4865 458.9167 161.4053 457.302 163.893 456.0605L171.7418 451.8108C177.749 448.1583 184.7551 444.8339 190.9346 441.2619L225.8977 422.2871C227.2212 421.5764 228.549 420.8204 229.7727 420.1126L241.3539 413.7987C246.043 411.4857 252.57 408.0104 256.0374 404.5377 258.1157 402.4559 259.7678 400.2763 261.318 397.7201 264.7018 392.1412 265.5519 384.6849 265.5519 377.7576L265.8039 258.0352C265.8039 245.1515 264.4384 230.3039 273.1782 220.5448 277.3446 215.8923 282.9472 210.9022 291.0087 210.9022 299.1487 210.9022 304.2193 214.0211 307.7906 220.081 308.9004 221.9641 309.7057 224.0022 310.2678 226.4258 311.9426 233.6485 311.1676 243.1536 311.1724 250.9778V368.6839C311.1724 373.4878 311.2937 378.1123 311.6693 382.5536 312.7272 395.0657 322.4509 401.2356 332.7746 405.3044 334.5491 406.0037 336.1377 406.5367 337.9844 407.1521 339.8749 407.7816 341.718 408.4693 343.4879 408.9583 345.3925 409.4841 347.1934 410.0445 349.0744 410.6809 351.0198 411.3391 352.713 411.7416 354.6819 412.3826L365.9199 415.7631C371.4936 417.31 376.9515 419.3365 382.5017 420.8576L404.9011 427.6959C406.6605 428.2914 408.7525 428.7986 410.5117 429.3941 415.9329 431.2301 421.634 432.6718 427.0802 434.5021 435.401 437.2982 446.4743 439.1368 453.2536 444.8752 457.0798 448.1138 458.6199 450.6866 458.6199 456.1444 458.6199 458.297 457.9639 460.0259 457.1974 461.5271 455.7189 464.4238 453.3576 466.8304 450.8067 468.7469 450.1457 469.2436 449.6723 469.6021 448.8956 470.1124 448.0481 470.6685 447.4996 470.8579 446.6313 471.3763 442.0831 474.0934 431.8313 476.8121 424.5936 476.8121 416.037 476.8121 411.4896 475.8608 403.7253 473.7359L380.2011 466.7621C378.9244 466.3706 377.6941 466.0135 376.3548 465.5679L325.3793 450.0028C322.7766 449.1479 320.3518 448.3587 317.6237 447.6767 305.0048 444.5215 290.6118 440.9977 277.8046 445.4606 274.6964 446.5437 254.058 457.8185 249.2495 460.5097 248.2923 461.0455 247.5139 461.336 246.5997 461.8925L223.6277 474.207C222.5514 474.7357 222.0545 475.1192 221.0272 475.6397L210.693 481.1842C209.3471 481.8617 206.547 483.3768 205.8168 484.3735 212.9848 489.1737 228.0064 492.3167 237.1686 495.3657 245.2056 498.0404 253.3674 500.2172 261.4269 502.8653L289.7164 511.6266C298.3439 514.2722 309.9923 518.1406 318.0311 520.363 319.4552 520.7564 320.6871 521.1108 322.1093 521.5776L325.8791 523.101C326.8729 523.6506 328.0397 524.6697 328.6749 525.598 329.9136 527.4085 330.0761 529.3176 330.0761 531.5063 330.0761 535.072 325.9363 538.5637 322.5146 538.5637 317.7726 538.5637 302.5811 533.1084 297.2177 531.3464 291.7777 529.5594 286.0271 528.0619 280.6435 526.2446L230.9306 510.9293C228.1275 510.1038 225.3399 509.1968 222.6742 508.3478 214.8851 505.8669 205.7769 504.212 198.8062 499.7018 197.6542 498.9569 196.5883 498.2876 195.5398 497.4231 191.9996 494.5051 188.7163 490.7166 188.3469 485.786 188.3129 485.331 188.4095 484.2643 188.4195 483.3624 188.4951 476.4555 194.6846 470.8738 200.2686 467.9875 204.9925 465.5455 209.6195 462.9674 214.3057 460.3484 220.1136 457.1022 226.2861 454.265 231.9809 450.8025 232.6209 450.4136 233.1675 450.1871 233.7826 449.8316L256.7412 437.504C259.8942 435.6717 268.2516 431.4084 271.2033 430.2896 276.5911 428.2475 282.1762 426.6547 289.4964 426.6547" fill="#e31e24" fill-rule="evenodd"/>
</g>
</svg>
