<svg width="44" height="44" viewBox="0 0 44 44" fill="none" xmlns="http://www.w3.org/2000/svg">
<rect width="44" height="44" rx="22" fill="#F3F8FF" fill-opacity="0.4"/>
<path fill-rule="evenodd" clip-rule="evenodd" d="M25.7128 26.7729C26.0057 27.0658 26.4805 27.0658 26.7734 26.7729C27.0663 26.48 27.0663 26.0052 26.7734 25.7123L23.0611 22L26.7734 18.2877C27.0663 17.9948 27.0663 17.5199 26.7734 17.227C26.4805 16.9341 26.0057 16.9341 25.7128 17.227L22.0005 20.9393L18.2882 17.227C17.9953 16.9341 17.5204 16.9341 17.2275 17.227C16.9346 17.5199 16.9346 17.9948 17.2275 18.2877L20.9398 22L17.2275 25.7123C16.9346 26.0052 16.9346 26.4801 17.2275 26.773C17.5204 27.0659 17.9952 27.0659 18.2881 26.773L22.0005 23.0606L25.7128 26.7729Z" fill="#0C0C0C"/>
</svg>
