<svg width="75" height="75" viewBox="0 0 75 75" fill="none" xmlns="http://www.w3.org/2000/svg">
<rect width="75" height="75" rx="8" fill="white"/>
<g clip-path="url(#clip0_17715_2209)">
<path fill-rule="evenodd" clip-rule="evenodd" d="M12.5379 12.452L30.5066 12.4484L44.9727 47.5663L47.879 47.538C48.6725 46.5237 51.3418 39.4744 52.0733 37.6956L56.0696 27.7821L52.4158 27.7861L46.5593 42.5622C45.64 41.3623 34.4221 12.4875 33.3767 10.0007L10.0061 10L10.001 64.9993L40.4881 64.9666L39.4776 62.5665L12.447 62.5589L12.5383 12.452H12.5379Z" fill="#252B39"/>
<path fill-rule="evenodd" clip-rule="evenodd" d="M26.5536 39.61C26.6815 38.7153 28.3761 34.9895 28.9376 33.6939L29.5621 32.3225C29.7397 32.0314 29.7223 32.0698 29.8916 31.8911C30.6463 34.2913 32.4953 37.2345 33.0915 39.5785L26.5532 39.61H26.5536ZM38.1234 12.365L62.5275 12.4575C62.9005 14.4462 62.5964 50.5226 62.6156 56.6029C62.6189 57.6299 62.6243 58.6558 62.6243 59.6831C62.6243 60.3799 62.9215 62.1634 62.3445 62.5614L46.7758 62.5527L31.3962 27.5969L28.2347 27.6219L19.6904 47.3655L23.1854 47.3191L25.0739 42.6496L34.4407 42.688L44.1148 64.9993L64.9946 64.9692L65.0011 10.0015L37.1846 10.0127L38.1238 12.3647L38.1234 12.365Z" fill="#252B39"/>
<path fill-rule="evenodd" clip-rule="evenodd" d="M26.5537 39.61L33.0921 39.5784C32.4958 37.2345 30.6464 34.2913 29.8921 31.8911C29.7228 32.0698 29.7402 32.0314 29.5626 32.3225L28.9381 33.6939C28.3766 34.9895 26.682 38.7153 26.5541 39.61H26.5537Z" fill="#F0F2F1"/>
<path fill-rule="evenodd" clip-rule="evenodd" d="M62.3441 62.5616C62.9212 62.1636 62.6239 60.3801 62.6239 59.6833C62.6239 58.6564 62.6185 57.6301 62.6152 56.6031C62.596 50.5231 62.9001 14.4468 62.5271 12.4577L38.123 12.3652C38.176 12.3986 38.2398 12.4472 38.2836 12.4631C39.4907 12.9086 48.3829 12.5911 50.2983 12.6023C54.3134 12.6252 58.3529 12.6291 62.409 12.6128L62.3444 62.5616H62.3441Z" fill="#AEB2B9"/>
</g>
<defs>
<clipPath id="clip0_17715_2209">
<rect width="55" height="55" fill="white" transform="translate(10 10)"/>
</clipPath>
</defs>
</svg>
